<svg xmlns="http://www.w3.org/2000/svg" version="1.1" xmlns:xlink="http://www.w3.org/1999/xlink" xmlns:svgjs="http://svgjs.com/svgjs" viewBox="-100 -100 2000 2000">
  <metadata>Copyright (c) 2021-2025 eldeecz, brazacz</metadata>
  <style>
    @media (prefers-color-scheme: dark) { 
      path { fill: #d3d8dc }
      circle { fill: #202428 }
    }
  </style>
  <circle cx="900" cy="900" r="880" fill="white" />
  <path fill="#202428" d="M864 7a906 906 0 00-321 74l-17 7a897 897 0 00-514 892 897 897 0 00640 777l14 4 52 13a886 886 0 00372-2l10-2a896 896 0 00671-674l4-18a899 899 0 00-177-736 893 893 0 00-734-335zM1039 180c8 3 13 8 19 18 6 11 7 13 9 33a426 426 0 01-1 84c-1 6-8 25-14 38-5 12-8 23-9 36-2 12 2 20 10 24 6 3 17 3 22 0 8-3 22-14 29-20a266 266 0 0164-47c10-7 20-10 33-9 18 2 25 6 33 20 5 10 7 20 8 52 2 31 1 34-8 45-6 8-14 14-31 22l-19 12c-10 8-25 24-28 29l-2 5 3 7a189 189 0 0116 65l1 13-2 16c-1 16-5 30-13 46-7 15-9 19-26 35l-22 24-16 19a208 208 0 00-52 82c-2 11 0 29 5 37 3 4 23 19 31 23s22 6 34 6c10-1 11-1 19-5 11-6 17-11 25-20a2427 2427 0 0163-71c9-8 26-18 38-22l20-6c12-2 20-2 32 2 12 3 15 5 27 18 13 14 12 12 22 40 4 13 5 15 7 31 4 20 4 25 4 42-1 19-2 23-10 37a117 117 0 01-98 56c-37 4-45 6-52 12-5 4-7 8-7 15 0 6 2 9 11 19l12 14 14 15 15 14a228 228 0 0158 137l3 21c2 10 2 20 2 110 0 115 0 125-6 144-3 8-8 17-11 20-4 3-17 9-24 10l-13 4c-7 3-10 3-21 4l-97-3c-10-1-23-5-33-9l-9-4-11-5-16-9a326 326 0 01-82-64c-11-17-35-38-47-44-10-4-12-4-35-4-25 1-29 2-38 7-10 5-18 13-23 23a227 227 0 01-28 44 509 509 0 01-36 52 147 147 0 01-55 46 91 91 0 01-64 16 642 642 0 01-100-6 211 211 0 01-39-4c-15-2-30-6-36-10l-13-6c-13-7-20-17-24-32-2-6-2-10-1-44 1-32 1-37 3-43 3-9 6-23 8-37a306 306 0 018-43c2-7 3-9 2-41a316 316 0 00-6-70c-2-12-2-59 0-75 4-25 8-40 16-54l20-33a239 239 0 0134-50c18-20 20-22 21-29 1-9-5-20-13-22s-22-1-39 5c-9 3-9 3-25 3a85 85 0 01-55-19c-13-9-20-19-33-45-7-14-8-18-10-28-4-16-4-28 0-45 5-26 9-37 19-50 7-10 15-15 33-23l11-5 20 1c24 0 32 1 51 8 16 6 15 6 28 14 10 8 28 24 39 37a173 173 0 0070 47c8 3 27 4 43 4 18-1 20-1 34-12 13-9 13-11 13-29l-1-20c-2-8-7-18-11-22-3-5-16-16-31-27-28-21-42-36-52-57-7-14-14-30-17-45-3-8-3-11-3-30 0-27 2-47 5-58 5-19 16-45 22-55 17-23 20-30 20-44 0-7-5-22-9-29l-6-10-5-9c-10-12-12-18-19-40-5-14-6-22-6-40v-16l6-13c9-19 19-34 30-44 10-8 14-11 22-12 17-3 34 7 45 25a152 152 0 0118 66l3 33c0 7 2 15 5 17 2 3 6 4 14 2 5-1 7-4 10-12 2-5 2-7 2-31a151 151 0 00-5-49l-4-18-6-19-6-27c0-7 2-14 10-31l13-19 13-12c9-7 25-11 40-11 6 0 23 4 29 7 3 2 10 10 14 17 6 11 6 13 7 90l1 69 2 6c2 5 4 6 7 8 7 3 18-1 23-8 2-4 2-6 3-15a336 336 0 016-46l5-57c1-11 2-15 5-25 5-13 8-19 17-32 11-14 19-21 28-24 6-1 42-1 47 1zM1034 448c-23 5-34 10-51 25-12 12-17 25-18 51-1 15 0 26 4 34 5 9 12 18 19 22a333 333 0 0119 10l6 2 27 1c26 0 28 0 44-9 14-7 16-9 23-21 13-19 18-35 17-52-1-8-1-9-7-20-7-14-9-17-21-27-8-6-11-7-20-10a83 83 0 00-42-6zM1053 474c17 3 29 11 38 24 4 7 4 8 5 15 0 9-1 16-6 26-4 10-17 22-28 27-7 3-8 3-22 4-13 0-14 0-21-2-14-5-25-13-30-21-2-4-3-6-3-15 0-8 0-12 2-18l4-14c1-5 2-7 8-12 9-9 13-12 20-14 7-3 21-3 33 0zM1056 495l-12 8-5 3-8-4c-7-4-10-4-13 0-2 3-2 3-1 6l5 5 6 3c1 1 0 2-3 6l-6 8c-1 3-1 3 1 6 3 5 6 4 14-4l8-8c2 0 8 5 13 10 5 6 9 6 12 3 5-5 0-12-11-20l-3-3 6-6c4-3 6-4 6-6 0-5-4-8-9-7zM767 462c-14 2-21 6-29 15l-9 10c-6 7-16 22-19 28s-4 33-2 42 8 19 17 31c9 11 14 15 22 19 14 6 51 7 69 1 16-5 41-35 47-57l2-21c0-15-1-21-5-30-5-9-19-25-26-28a103 103 0 00-67-10zM811 489c11 4 17 7 23 13 7 6 9 10 9 23 0 26-9 43-27 53-10 7-17 7-39 6-16-2-18-2-23-5-16-8-24-22-23-43 1-16 6-26 18-37 12-10 21-13 41-13 11 1 15 1 21 3zM767 512c-4 1-5 7-2 10l5 3 3 2-4 4c-9 8-13 18-9 21 4 4 7 2 14-7 2-3 9-9 11-9l7 6c8 7 11 8 15 5 5-3 4-6-3-13l-7-7 4-3c5-3 6-4 6-8 0-6-8-7-16-1l-6 4-3-2-12-6-3 1z"></path>
</svg>
