<?xml version="1.0" encoding="UTF-8" standalone="no"?><svg xmlns="http://www.w3.org/2000/svg" xmlns:xlink="http://www.w3.org/1999/xlink" contentScriptType="application/ecmascript" contentStyleType="text/css" height="575px" preserveAspectRatio="none" style="width:719px;height:575px;background:#FFFFFF;" version="1.1" viewBox="0 0 719 575" width="719px" zoomAndPan="magnify"><defs/><g><rect fill="#FF7332" height="30.3516" style="stroke:#748B95;stroke-width:1.0;" width="10" x="259" y="118.0859"/><rect fill="#FF7332" height="60.7031" style="stroke:#748B95;stroke-width:1.0;" width="10" x="427" y="148.4375"/><line style="stroke:#748B95;stroke-width:1.0;stroke-dasharray:5.0,5.0;" x1="91" x2="91" y1="42.6406" y2="568.8828"/><line style="stroke:#748B95;stroke-width:1.0;stroke-dasharray:5.0,5.0;" x1="264" x2="264" y1="42.6406" y2="568.8828"/><line style="stroke:#748B95;stroke-width:1.0;stroke-dasharray:5.0,5.0;" x1="432" x2="432" y1="42.6406" y2="568.8828"/><line style="stroke:#748B95;stroke-width:1.0;stroke-dasharray:5.0,5.0;" x1="615" x2="615" y1="42.6406" y2="568.8828"/><rect fill="#D3D3D3" height="36.6406" style="stroke:#748B95;stroke-width:3.0;" width="172" x="5" y="5"/><text fill="#000000" font-family="sans-serif" font-size="18" font-weight="bold" lengthAdjust="spacing" textLength="158" x="12" y="30.6855">Working Directory</text><rect fill="#FFFFE0" height="36.6406" style="stroke:#748B95;stroke-width:3.0;" width="154" x="187" y="5"/><text fill="#000000" font-family="sans-serif" font-size="18" font-weight="bold" lengthAdjust="spacing" textLength="120" x="204" y="30.6855">Staging Index</text><rect fill="#90EE90" height="36.6406" style="stroke:#748B95;stroke-width:3.0;" width="162" x="351" y="5"/><text fill="#000000" font-family="sans-serif" font-size="18" font-weight="bold" lengthAdjust="spacing" textLength="148" x="358" y="30.6855">Local Repository</text><rect fill="#ADD8E6" height="36.6406" style="stroke:#748B95;stroke-width:3.0;" width="184" x="523" y="5"/><text fill="#000000" font-family="sans-serif" font-size="18" font-weight="bold" lengthAdjust="spacing" textLength="170" x="530" y="30.6855">Remote Repository</text><rect fill="#FF7332" height="30.3516" style="stroke:#748B95;stroke-width:1.0;" width="10" x="259" y="118.0859"/><rect fill="#FF7332" height="60.7031" style="stroke:#748B95;stroke-width:1.0;" width="10" x="427" y="148.4375"/><rect fill="#748B95" height="3" style="stroke:#748B95;stroke-width:1.0;" width="712" x="0" y="73.1875"/><line style="stroke:#000000;stroke-width:0.0;" x1="0" x2="712" y1="73.1875" y2="73.1875"/><line style="stroke:#000000;stroke-width:0.0;" x1="0" x2="712" y1="76.1875" y2="76.1875"/><rect fill="#748B95" height="23.0938" style="stroke:#000000;stroke-width:0.0;" width="105" x="303.5" y="62.6406"/><text fill="#FFFFFF" font-family="sans-serif" font-size="12" font-weight="bold" lengthAdjust="spacing" textLength="91" x="309.5" y="79.0977">Upload changes</text><polygon fill="#FF7332" points="247,114.0859,257,118.0859,247,122.0859,251,118.0859" style="stroke:#FF7332;stroke-width:1.0;"/><line style="stroke:#FF7332;stroke-width:2.0;" x1="91" x2="253" y1="118.0859" y2="118.0859"/><text fill="#000000" font-family="sans-serif" font-size="13" lengthAdjust="spacing" textLength="39" x="98" y="113.2295">git add</text><polygon fill="#FF7332" points="415,144.4375,425,148.4375,415,152.4375,419,148.4375" style="stroke:#FF7332;stroke-width:1.0;"/><line style="stroke:#FF7332;stroke-width:2.0;" x1="264" x2="421" y1="148.4375" y2="148.4375"/><text fill="#000000" font-family="sans-serif" font-size="13" lengthAdjust="spacing" textLength="61" x="271" y="143.5811">git commit</text><polygon fill="#FF7332" points="415,174.7891,425,178.7891,415,182.7891,419,178.7891" style="stroke:#FF7332;stroke-width:1.0;"/><line style="stroke:#FF7332;stroke-width:2.0;" x1="91" x2="421" y1="178.7891" y2="178.7891"/><text fill="#000000" font-family="sans-serif" font-size="13" lengthAdjust="spacing" textLength="76" x="98" y="173.9326">git commit -a</text><polygon fill="#FF7332" points="603,205.1406,613,209.1406,603,213.1406,607,209.1406" style="stroke:#FF7332;stroke-width:1.0;"/><line style="stroke:#FF7332;stroke-width:2.0;" x1="432" x2="609" y1="209.1406" y2="209.1406"/><text fill="#000000" font-family="sans-serif" font-size="13" lengthAdjust="spacing" textLength="46" x="439" y="204.2842">git push</text><rect fill="#748B95" height="3" style="stroke:#748B95;stroke-width:1.0;" width="712" x="0" y="237.6875"/><line style="stroke:#000000;stroke-width:0.0;" x1="0" x2="712" y1="237.6875" y2="237.6875"/><line style="stroke:#000000;stroke-width:0.0;" x1="0" x2="712" y1="240.6875" y2="240.6875"/><rect fill="#748B95" height="23.0938" style="stroke:#000000;stroke-width:0.0;" width="122" x="295" y="227.1406"/><text fill="#FFFFFF" font-family="sans-serif" font-size="12" font-weight="bold" lengthAdjust="spacing" textLength="108" x="301" y="243.5977">Download changes</text><polygon fill="#FF7332" points="443,278.5859,433,282.5859,443,286.5859,439,282.5859" style="stroke:#FF7332;stroke-width:1.0;"/><line style="stroke:#FF7332;stroke-width:2.0;stroke-dasharray:2.0,2.0;" x1="437" x2="614" y1="282.5859" y2="282.5859"/><text fill="#000000" font-family="sans-serif" font-size="13" lengthAdjust="spacing" textLength="46" x="449" y="277.7295">git fetch</text><polygon fill="#FF7332" points="102,308.9375,92,312.9375,102,316.9375,98,312.9375" style="stroke:#FF7332;stroke-width:1.0;"/><line style="stroke:#FF7332;stroke-width:2.0;stroke-dasharray:2.0,2.0;" x1="96" x2="431" y1="312.9375" y2="312.9375"/><text fill="#000000" font-family="sans-serif" font-size="13" lengthAdjust="spacing" textLength="54" x="108" y="308.0811">git merge</text><text fill="#000000" font-family="sans-serif" font-size="13" font-style="italic" lengthAdjust="spacing" textLength="11" x="166" y="308.0811">or</text><text fill="#000000" font-family="sans-serif" font-size="13" lengthAdjust="spacing" textLength="57" x="181" y="308.0811">git rebase</text><polygon fill="#FF7332" points="102,339.2891,92,343.2891,102,347.2891,98,343.2891" style="stroke:#FF7332;stroke-width:1.0;"/><line style="stroke:#FF7332;stroke-width:2.0;stroke-dasharray:2.0,2.0;" x1="96" x2="614" y1="343.2891" y2="343.2891"/><text fill="#000000" font-family="sans-serif" font-size="13" lengthAdjust="spacing" textLength="38" x="108" y="338.4326">git pull</text><text fill="#000000" font-family="sans-serif" font-size="13" font-style="italic" lengthAdjust="spacing" textLength="11" x="150" y="338.4326">or</text><text fill="#000000" font-family="sans-serif" font-size="13" lengthAdjust="spacing" textLength="49" x="165" y="338.4326">git clone</text><rect fill="#748B95" height="3" style="stroke:#748B95;stroke-width:1.0;" width="712" x="0" y="371.8359"/><line style="stroke:#000000;stroke-width:0.0;" x1="0" x2="712" y1="371.8359" y2="371.8359"/><line style="stroke:#000000;stroke-width:0.0;" x1="0" x2="712" y1="374.8359" y2="374.8359"/><rect fill="#748B95" height="23.0938" style="stroke:#000000;stroke-width:0.0;" width="103" x="304.5" y="361.2891"/><text fill="#FFFFFF" font-family="sans-serif" font-size="12" font-weight="bold" lengthAdjust="spacing" textLength="89" x="310.5" y="377.7461">Revert changes</text><polygon fill="#FF7332" points="102,412.7344,92,416.7344,102,420.7344,98,416.7344" style="stroke:#FF7332;stroke-width:1.0;"/><line style="stroke:#FF7332;stroke-width:2.0;stroke-dasharray:2.0,2.0;" x1="96" x2="431" y1="416.7344" y2="416.7344"/><text fill="#000000" font-family="sans-serif" font-size="13" lengthAdjust="spacing" textLength="111" x="108" y="411.8779">git checkout HEAD</text><polygon fill="#FF7332" points="102,443.0859,92,447.0859,102,451.0859,98,447.0859" style="stroke:#FF7332;stroke-width:1.0;"/><line style="stroke:#FF7332;stroke-width:2.0;stroke-dasharray:2.0,2.0;" x1="96" x2="263" y1="447.0859" y2="447.0859"/><text fill="#000000" font-family="sans-serif" font-size="13" lengthAdjust="spacing" textLength="71" x="108" y="442.2295">git checkout</text><rect fill="#748B95" height="3" style="stroke:#748B95;stroke-width:1.0;" width="712" x="0" y="475.6328"/><line style="stroke:#000000;stroke-width:0.0;" x1="0" x2="712" y1="475.6328" y2="475.6328"/><line style="stroke:#000000;stroke-width:0.0;" x1="0" x2="712" y1="478.6328" y2="478.6328"/><rect fill="#748B95" height="23.0938" style="stroke:#000000;stroke-width:0.0;" width="118" x="297" y="465.0859"/><text fill="#FFFFFF" font-family="sans-serif" font-size="12" font-weight="bold" lengthAdjust="spacing" textLength="104" x="303" y="481.543">Compare changes</text><polygon fill="#FF7332" points="102,516.5313,92,520.5313,102,524.5313,98,520.5313" style="stroke:#FF7332;stroke-width:1.0;"/><polygon fill="#FF7332" points="252,516.5313,262,520.5313,252,524.5313,256,520.5313" style="stroke:#FF7332;stroke-width:1.0;"/><line style="stroke:#FF7332;stroke-width:2.0;" x1="96" x2="258" y1="520.5313" y2="520.5313"/><text fill="#000000" font-family="sans-serif" font-size="13" lengthAdjust="spacing" textLength="34" x="108" y="515.6748">git diff</text><polygon fill="#FF7332" points="102,546.8828,92,550.8828,102,554.8828,98,550.8828" style="stroke:#FF7332;stroke-width:1.0;"/><polygon fill="#FF7332" points="420,546.8828,430,550.8828,420,554.8828,424,550.8828" style="stroke:#FF7332;stroke-width:1.0;"/><line style="stroke:#FF7332;stroke-width:2.0;" x1="96" x2="426" y1="550.8828" y2="550.8828"/><text fill="#000000" font-family="sans-serif" font-size="13" lengthAdjust="spacing" textLength="74" x="108" y="546.0264">git diff HEAD</text></g></svg>